<mxfile host="app.diagrams.net" agent="Mozilla/5.0 (Windows NT 10.0; Win64; x64) AppleWebKit/537.36 (KHTML, like Gecko) Chrome/134.0.0.0 Safari/537.36" version="26.2.3">
  <diagram name="PÃ¡gina-1" id="CRC1uAiOmM8tx6dWhX5k">
    <mxGraphModel dx="611" dy="273" grid="1" gridSize="10" guides="1" tooltips="1" connect="1" arrows="1" fold="1" page="1" pageScale="1" pageWidth="827" pageHeight="1169" math="0" shadow="0">
      <root>
        <mxCell id="0" />
        <mxCell id="1" parent="0" />
        <mxCell id="55GqH5Y42_msCHlaFa9X-20" value="InÃ­cio" style="ellipse;whiteSpace=wrap;html=1;fillColor=#D5E8D4;" vertex="1" parent="1">
          <mxGeometry x="354" y="150" width="120" height="60" as="geometry" />
        </mxCell>
        <mxCell id="55GqH5Y42_msCHlaFa9X-21" value="Criar histÃ³rico vazio" style="rounded=1;whiteSpace=wrap;html=1;fillColor=#FFF2CC;" vertex="1" parent="1">
          <mxGeometry x="334" y="230" width="160" height="60" as="geometry" />
        </mxCell>
        <mxCell id="55GqH5Y42_msCHlaFa9X-22" value="Adicionar aÃ§Ã£o?" style="rhombus;whiteSpace=wrap;html=1;fillColor=#F8CECC;" vertex="1" parent="1">
          <mxGeometry x="354" y="310" width="120" height="60" as="geometry" />
        </mxCell>
        <mxCell id="55GqH5Y42_msCHlaFa9X-23" value="Executar AdiÃ§Ã£o" style="rounded=1;whiteSpace=wrap;html=1;fillColor=#DAE8FC;" vertex="1" parent="1">
          <mxGeometry x="334" y="390" width="160" height="60" as="geometry" />
        </mxCell>
        <mxCell id="55GqH5Y42_msCHlaFa9X-24" value="Desfazer?" style="rhombus;whiteSpace=wrap;html=1;fillColor=#F8CECC;" vertex="1" parent="1">
          <mxGeometry x="354" y="470" width="120" height="60" as="geometry" />
        </mxCell>
        <mxCell id="55GqH5Y42_msCHlaFa9X-25" value="Executar Desfazer" style="rounded=1;whiteSpace=wrap;html=1;fillColor=#DAE8FC;" vertex="1" parent="1">
          <mxGeometry x="334" y="550" width="160" height="60" as="geometry" />
        </mxCell>
        <mxCell id="55GqH5Y42_msCHlaFa9X-26" value="Refazer?" style="rhombus;whiteSpace=wrap;html=1;fillColor=#F8CECC;" vertex="1" parent="1">
          <mxGeometry x="354" y="630" width="120" height="60" as="geometry" />
        </mxCell>
        <mxCell id="55GqH5Y42_msCHlaFa9X-27" value="Executar Refazer" style="rounded=1;whiteSpace=wrap;html=1;fillColor=#DAE8FC;" vertex="1" parent="1">
          <mxGeometry x="334" y="710" width="160" height="60" as="geometry" />
        </mxCell>
        <mxCell id="55GqH5Y42_msCHlaFa9X-28" value="Listar aÃ§Ãµes" style="rounded=1;whiteSpace=wrap;html=1;fillColor=#D5E8D4;" vertex="1" parent="1">
          <mxGeometry x="334" y="790" width="160" height="60" as="geometry" />
        </mxCell>
        <mxCell id="55GqH5Y42_msCHlaFa9X-29" value="Fim" style="ellipse;whiteSpace=wrap;html=1;fillColor=#D5E8D4;" vertex="1" parent="1">
          <mxGeometry x="354" y="870" width="120" height="60" as="geometry" />
        </mxCell>
        <mxCell id="55GqH5Y42_msCHlaFa9X-30" edge="1" parent="1" source="55GqH5Y42_msCHlaFa9X-20" target="55GqH5Y42_msCHlaFa9X-21">
          <mxGeometry relative="1" as="geometry" />
        </mxCell>
        <mxCell id="55GqH5Y42_msCHlaFa9X-31" edge="1" parent="1" source="55GqH5Y42_msCHlaFa9X-21" target="55GqH5Y42_msCHlaFa9X-22">
          <mxGeometry relative="1" as="geometry" />
        </mxCell>
        <mxCell id="55GqH5Y42_msCHlaFa9X-32" edge="1" parent="1" source="55GqH5Y42_msCHlaFa9X-22" target="55GqH5Y42_msCHlaFa9X-23">
          <mxGeometry relative="1" as="geometry" />
        </mxCell>
        <mxCell id="55GqH5Y42_msCHlaFa9X-33" edge="1" parent="1" source="55GqH5Y42_msCHlaFa9X-23" target="55GqH5Y42_msCHlaFa9X-24">
          <mxGeometry relative="1" as="geometry" />
        </mxCell>
        <mxCell id="55GqH5Y42_msCHlaFa9X-34" edge="1" parent="1" source="55GqH5Y42_msCHlaFa9X-24" target="55GqH5Y42_msCHlaFa9X-25">
          <mxGeometry relative="1" as="geometry" />
        </mxCell>
        <mxCell id="55GqH5Y42_msCHlaFa9X-35" edge="1" parent="1" source="55GqH5Y42_msCHlaFa9X-25" target="55GqH5Y42_msCHlaFa9X-26">
          <mxGeometry relative="1" as="geometry" />
        </mxCell>
        <mxCell id="55GqH5Y42_msCHlaFa9X-36" edge="1" parent="1" source="55GqH5Y42_msCHlaFa9X-26" target="55GqH5Y42_msCHlaFa9X-27">
          <mxGeometry relative="1" as="geometry" />
        </mxCell>
        <mxCell id="55GqH5Y42_msCHlaFa9X-37" edge="1" parent="1" source="55GqH5Y42_msCHlaFa9X-27" target="55GqH5Y42_msCHlaFa9X-28">
          <mxGeometry relative="1" as="geometry" />
        </mxCell>
        <mxCell id="55GqH5Y42_msCHlaFa9X-38" edge="1" parent="1" source="55GqH5Y42_msCHlaFa9X-28" target="55GqH5Y42_msCHlaFa9X-29">
          <mxGeometry relative="1" as="geometry" />
        </mxCell>
        <mxCell id="55GqH5Y42_msCHlaFa9X-39" value="&lt;p data-start=&quot;141&quot; data-end=&quot;184&quot; class=&quot;&quot;&gt;ðŸŸ¢ &lt;strong data-start=&quot;144&quot; data-end=&quot;163&quot;&gt;Verde&lt;/strong&gt;&amp;nbsp;â†’ &lt;strong data-start=&quot;166&quot; data-end=&quot;182&quot;&gt;InÃ­cio e Fim&lt;/strong&gt;&lt;/p&gt;&lt;ul data-start=&quot;188&quot; data-end=&quot;251&quot;&gt;&lt;li data-start=&quot;188&quot; data-end=&quot;251&quot; class=&quot;&quot;&gt;&lt;p data-start=&quot;190&quot; data-end=&quot;251&quot; class=&quot;&quot;&gt;Representa o ponto de entrada e saÃ­da do fluxo de execuÃ§Ã£o.&lt;/p&gt;&lt;br&gt;&lt;/li&gt;&lt;br&gt;&lt;/ul&gt;&lt;br&gt;&lt;p data-start=&quot;253&quot; data-end=&quot;306&quot; class=&quot;&quot;&gt;ðŸŸ¡ &lt;strong data-start=&quot;256&quot; data-end=&quot;277&quot;&gt;Amarelo&lt;/strong&gt;&amp;nbsp;â†’ &lt;strong data-start=&quot;280&quot; data-end=&quot;304&quot;&gt;CriaÃ§Ã£o do histÃ³rico&lt;/strong&gt;&lt;/p&gt;&lt;ul data-start=&quot;310&quot; data-end=&quot;375&quot;&gt;&lt;li data-start=&quot;310&quot; data-end=&quot;375&quot; class=&quot;&quot;&gt;&lt;p data-start=&quot;312&quot; data-end=&quot;375&quot; class=&quot;&quot;&gt;Indica a inicializaÃ§Ã£o da estrutura de dados usada no cÃ³digo.&lt;/p&gt;&lt;br&gt;&lt;/li&gt;&lt;br&gt;&lt;/ul&gt;&lt;br&gt;&lt;p data-start=&quot;377&quot; data-end=&quot;430&quot; class=&quot;&quot;&gt;ðŸ”´ &lt;strong data-start=&quot;380&quot; data-end=&quot;402&quot;&gt;Vermelho &lt;/strong&gt;â†’ &lt;strong data-start=&quot;405&quot; data-end=&quot;428&quot;&gt;DecisÃµes&lt;/strong&gt;&lt;/p&gt;&lt;ul data-start=&quot;434&quot; data-end=&quot;545&quot;&gt;&lt;li data-start=&quot;434&quot; data-end=&quot;545&quot; class=&quot;&quot;&gt;&lt;p data-start=&quot;436&quot; data-end=&quot;545&quot; class=&quot;&quot;&gt;Representa perguntas condicionais, onde o fluxo pode seguir por caminhos diferentes&lt;/p&gt;&lt;br&gt;&lt;/li&gt;&lt;br&gt;&lt;/ul&gt;&lt;br&gt;&lt;p data-start=&quot;547&quot; data-end=&quot;599&quot; class=&quot;&quot;&gt;&lt;span style=&quot;background-color: transparent; color: light-dark(rgb(0, 0, 0), rgb(255, 255, 255));&quot;&gt;ðŸ”µ &lt;/span&gt;&lt;strong style=&quot;background-color: transparent; color: light-dark(rgb(0, 0, 0), rgb(255, 255, 255));&quot; data-end=&quot;574&quot; data-start=&quot;550&quot;&gt;Azul claro&lt;/strong&gt;&lt;span style=&quot;background-color: transparent; color: light-dark(rgb(0, 0, 0), rgb(255, 255, 255));&quot;&gt;&amp;nbsp;â†’ &lt;/span&gt;&lt;strong style=&quot;background-color: transparent; color: light-dark(rgb(0, 0, 0), rgb(255, 255, 255));&quot; data-end=&quot;597&quot; data-start=&quot;577&quot;&gt;AÃ§Ãµes executadas&lt;/strong&gt;&lt;/p&gt;&lt;ul data-end=&quot;700&quot; data-start=&quot;603&quot;&gt;&lt;li class=&quot;&quot; data-end=&quot;700&quot; data-start=&quot;603&quot;&gt;&lt;p class=&quot;&quot; data-end=&quot;700&quot; data-start=&quot;605&quot;&gt;Indica os blocos que realizam operaÃ§Ãµes no histÃ³rico&amp;nbsp;&lt;/p&gt;&lt;/li&gt;&lt;/ul&gt;" style="text;whiteSpace=wrap;html=1;" vertex="1" parent="1">
          <mxGeometry y="70" width="270" height="580" as="geometry" />
        </mxCell>
      </root>
    </mxGraphModel>
  </diagram>
</mxfile>
